<?xml version="1.0" encoding="utf-8"?>
<!-- Generator: Adobe Illustrator 28.3.0, SVG Export Plug-In . SVG Version: 6.00 Build 0)  -->
<svg version="1.1" id="Ebene_1" xmlns="http://www.w3.org/2000/svg" xmlns:xlink="http://www.w3.org/1999/xlink" x="0px" y="0px"
	 viewBox="0 0 16 16" style="enable-background:new 0 0 16 16;" xml:space="preserve">
<style type="text/css">
	.st0{fill:#7FD159;}
</style>
<g>
	<path class="st0" d="M2.9,14.5V2.3l0.9-0.5l9.1,6.1v0.9l-9.1,6.1L2.9,14.5z M4.1,13.3l7.2-4.9L4.1,3.5V13.3z"/>
	<path class="st0" d="M3.8,2l9,6v0.8l-9,6L3,14.4v-12L3.8,2 M4,13.5l7.6-5.1L4,3.3V13.5 M3.8,1.7L3.7,1.8L2.9,2.2L2.8,2.2v0.2v12
		v0.2l0.1,0.1L3.7,15l0.1,0.1L3.9,15l9-6l0.1-0.1V8.8V8V7.9l-0.1-0.1l-9-6L3.8,1.7L3.8,1.7z M4.2,13V3.8l6.9,4.6L4.2,13L4.2,13z"/>
</g>
</svg>
